<svg width="16" height="16" viewBox="0 0 16 16" fill="none" xmlns="http://www.w3.org/2000/svg">
<rect width="16" height="16" fill="#041827"/>
<path d="M9.16671 5.66663C9.38371 5.66663 9.56704 5.80646 9.63604 5.99995H11.364C11.433 5.80646 11.6164 5.66663 11.8334 5.66663C12.109 5.66663 12.3334 5.89096 12.3334 6.16662C12.3334 6.44228 12.109 6.66661 11.8334 6.66661C11.6164 6.66661 11.433 6.52678 11.364 6.33328H9.63587C9.56687 6.52678 9.38354 6.66661 9.16654 6.66661C8.89087 6.66661 8.66654 6.44228 8.66654 6.16662C8.66654 5.89096 8.89104 5.66663 9.16671 5.66663ZM11.8334 6.33328C11.9252 6.33328 12 6.25862 12 6.16662C12 6.07462 11.9252 5.99995 11.8334 5.99995C11.7415 5.99995 11.6667 6.07462 11.6667 6.16662C11.6667 6.25862 11.7415 6.33328 11.8334 6.33328ZM9.16671 6.33328C9.25854 6.33328 9.33337 6.25862 9.33337 6.16662C9.33337 6.07462 9.25854 5.99995 9.16671 5.99995C9.07487 5.99995 9.00004 6.07462 9.00004 6.16662C9.00004 6.25862 9.07487 6.33328 9.16671 6.33328Z" fill="#00B2FF"/>
<path d="M7.83329 6.6973V5.66665C7.83329 5.62231 7.85079 5.57998 7.88213 5.54882L8.54879 4.88216C8.57996 4.85083 8.62246 4.83333 8.66663 4.83333H9.19729C9.26629 4.63983 9.44963 4.5 9.66663 4.5C9.94229 4.5 10.1666 4.72433 10.1666 4.99999C10.1666 5.27565 9.94229 5.49998 9.66663 5.49998C9.44963 5.49998 9.26629 5.36015 9.19729 5.16666H8.73563L8.16663 5.73565V6.6973C8.36013 6.7663 8.49996 6.94963 8.49996 7.16662C8.49996 7.44228 8.27563 7.66661 7.99996 7.66661C7.72429 7.66661 7.49996 7.44228 7.49996 7.16662C7.49996 6.94963 7.63979 6.7663 7.83329 6.6973ZM9.66663 5.16666C9.75846 5.16666 9.83329 5.09199 9.83329 4.99999C9.83329 4.90799 9.75846 4.83333 9.66663 4.83333C9.57479 4.83333 9.49996 4.90799 9.49996 4.99999C9.49996 5.09199 9.57479 5.16666 9.66663 5.16666ZM7.99996 7.33329C8.09179 7.33329 8.16663 7.25862 8.16663 7.16662C8.16663 7.07462 8.09179 6.99996 7.99996 6.99996C7.90813 6.99996 7.83329 7.07462 7.83329 7.16662C7.83329 7.25862 7.90813 7.33329 7.99996 7.33329Z" fill="#00B2FF"/>
<path d="M4.83333 7.33326C4.91033 7.33326 4.98233 7.35209 5.0475 7.38343L5.33333 7.0976V5.49996C5.33333 5.45563 5.35083 5.41329 5.38217 5.38213L7.05017 3.71415C7.01883 3.64899 7 3.57699 7 3.49999C7 3.22433 7.22433 3 7.5 3C7.77567 3 8 3.22433 8 3.49999C8 3.77565 7.77567 3.99998 7.5 3.99998C7.423 3.99998 7.351 3.98115 7.28583 3.94982L5.66667 5.56896V7.1666C5.66667 7.21093 5.64917 7.25326 5.61783 7.28443L5.28317 7.61909C5.3145 7.68426 5.33333 7.75625 5.33333 7.83325C5.33333 8.10892 5.109 8.33324 4.83333 8.33324C4.55767 8.33324 4.33333 8.10892 4.33333 7.83325C4.33333 7.55759 4.55767 7.33326 4.83333 7.33326ZM7.5 3.66666C7.59183 3.66666 7.66667 3.59199 7.66667 3.49999C7.66667 3.40799 7.59183 3.33333 7.5 3.33333C7.40817 3.33333 7.33333 3.40799 7.33333 3.49999C7.33333 3.59199 7.40817 3.66666 7.5 3.66666ZM4.83333 7.99992C4.92517 7.99992 5 7.92525 5 7.83325C5 7.74125 4.92517 7.66659 4.83333 7.66659C4.7415 7.66659 4.66667 7.74125 4.66667 7.83325C4.66667 7.92525 4.7415 7.99992 4.83333 7.99992Z" fill="#00B2FF"/>
<path d="M3.33333 5.36396V4.66664C3.33333 4.62231 3.35083 4.57997 3.38217 4.54881L4.54883 3.38216C4.58 3.35083 4.6225 3.33333 4.66667 3.33333H5.53067C5.59967 3.13983 5.783 3 6 3C6.27567 3 6.5 3.22433 6.5 3.49999C6.5 3.77565 6.27567 3.99998 6 3.99998C5.783 3.99998 5.59967 3.86015 5.53067 3.66666H4.73567L3.66667 4.73564V5.36396C3.86017 5.43296 4 5.61629 4 5.83329C4 6.10895 3.77567 6.33328 3.5 6.33328C3.22433 6.33328 3 6.10895 3 5.83329C3 5.61629 3.13983 5.43296 3.33333 5.36396ZM6 3.66666C6.09183 3.66666 6.16667 3.59199 6.16667 3.49999C6.16667 3.40799 6.09183 3.33333 6 3.33333C5.90817 3.33333 5.83333 3.40799 5.83333 3.49999C5.83333 3.59199 5.90817 3.66666 6 3.66666ZM3.5 5.99995C3.59183 5.99995 3.66667 5.92528 3.66667 5.83329C3.66667 5.74129 3.59183 5.66662 3.5 5.66662C3.40817 5.66662 3.33333 5.74129 3.33333 5.83329C3.33333 5.92528 3.40817 5.99995 3.5 5.99995Z" fill="#00B2FF"/>
<path d="M5.6665 12.0307V9.63587C5.47317 9.56687 5.33333 9.38354 5.33333 9.16654C5.33333 8.89088 5.55767 8.66655 5.83333 8.66655C6.05033 8.66655 6.23367 8.80638 6.30267 8.99988H8.03067C8.09967 8.80638 8.283 8.66655 8.5 8.66655C8.717 8.66655 8.90033 8.80638 8.96933 8.99988H9.931L10.5502 8.38072C10.5188 8.31555 10.5 8.24356 10.5 8.16656C10.5 7.89089 10.7243 7.66656 11 7.66656C11.2757 7.66656 11.5 7.89089 11.5 8.16656C11.5 8.44222 11.2757 8.66655 11 8.66655C10.923 8.66655 10.851 8.64772 10.7858 8.61638L10.1178 9.28437C10.0867 9.3157 10.0442 9.3332 10 9.3332H8.96933C8.90033 9.5267 8.717 9.66653 8.5 9.66653C8.283 9.66653 8.09967 9.5267 8.03067 9.3332H6.3025C6.25217 9.47437 6.141 9.58553 5.99983 9.63587V12.0307C6.19333 12.0997 6.33317 12.283 6.33317 12.5C6.33317 12.7756 6.10883 13 5.83317 13C5.5575 13 5.33317 12.7756 5.33317 12.5C5.33317 12.283 5.473 12.0997 5.6665 12.0307ZM11 8.33322C11.0918 8.33322 11.1667 8.25856 11.1667 8.16656C11.1667 8.07456 11.0918 7.99989 11 7.99989C10.9082 7.99989 10.8333 8.07456 10.8333 8.16656C10.8333 8.25856 10.9082 8.33322 11 8.33322ZM8.5 9.3332C8.59183 9.3332 8.66667 9.25854 8.66667 9.16654C8.66667 9.07454 8.59183 8.99988 8.5 8.99988C8.40817 8.99988 8.33333 9.07454 8.33333 9.16654C8.33333 9.25854 8.40817 9.3332 8.5 9.3332ZM5.83333 12.6665C5.92517 12.6665 6 12.5918 6 12.4998C6 12.4078 5.92517 12.3332 5.83333 12.3332C5.7415 12.3332 5.66667 12.4078 5.66667 12.4998C5.66667 12.5918 5.7415 12.6665 5.83333 12.6665ZM5.83333 9.3332C5.92517 9.3332 6 9.25854 6 9.16654C6 9.07454 5.92517 8.99988 5.83333 8.99988C5.7415 8.99988 5.66667 9.07454 5.66667 9.16654C5.66667 9.25854 5.7415 9.3332 5.83333 9.3332Z" fill="#00B2FF"/>
<path d="M6.49996 6.36394V5.83329C6.49996 5.78895 6.51746 5.74662 6.54879 5.71545L8.55013 3.71415C8.51879 3.64899 8.49996 3.57699 8.49996 3.49999C8.49996 3.22433 8.72429 3 8.99996 3C9.21696 3 9.40029 3.13983 9.46929 3.33333H10.1666C10.2586 3.33333 10.3333 3.40783 10.3333 3.49999V3.93098L10.9525 4.55014C11.0176 4.51881 11.0896 4.49997 11.1666 4.49997C11.4423 4.49997 11.6666 4.7243 11.6666 4.99997C11.6666 5.27563 11.4423 5.49996 11.1666 5.49996C10.891 5.49996 10.6666 5.27563 10.6666 4.99997C10.6666 4.92297 10.6855 4.85097 10.7168 4.7858L10.0488 4.11781C10.0175 4.08665 9.99996 4.04432 9.99996 3.99998V3.66666H9.46929C9.40029 3.86015 9.21696 3.99998 8.99996 3.99998C8.92296 3.99998 8.85096 3.98115 8.78579 3.94982L6.83329 5.90228V6.36394C7.02679 6.43294 7.16663 6.61627 7.16663 6.83327C7.16663 7.10893 6.94229 7.33326 6.66663 7.33326C6.39096 7.33326 6.16663 7.10893 6.16663 6.83327C6.16663 6.61627 6.30646 6.43294 6.49996 6.36394ZM11.1666 5.16663C11.2585 5.16663 11.3333 5.09197 11.3333 4.99997C11.3333 4.90797 11.2585 4.8333 11.1666 4.8333C11.0748 4.8333 11 4.90797 11 4.99997C11 5.09197 11.0748 5.16663 11.1666 5.16663ZM8.99996 3.66666C9.09179 3.66666 9.16663 3.59199 9.16663 3.49999C9.16663 3.40799 9.09179 3.33333 8.99996 3.33333C8.90813 3.33333 8.83329 3.40799 8.83329 3.49999C8.83329 3.59199 8.90813 3.66666 8.99996 3.66666ZM6.66663 6.99993C6.75846 6.99993 6.83329 6.92527 6.83329 6.83327C6.83329 6.74127 6.75846 6.66661 6.66663 6.66661C6.57479 6.66661 6.49996 6.74127 6.49996 6.83327C6.49996 6.92527 6.57479 6.99993 6.66663 6.99993Z" fill="#00B2FF"/>
<path d="M7 7.66659C7.217 7.66659 7.40033 7.80642 7.46933 7.99992H9.431L10.3822 7.04877C10.4133 7.01743 10.4558 6.99993 10.5 6.99993H12.2643L12.6667 6.59761V5.23563L11.3808 3.94982C11.3157 3.98115 11.2437 3.99998 11.1667 3.99998C10.891 3.99998 10.6667 3.77565 10.6667 3.49999C10.6667 3.22433 10.891 3 11.1667 3C11.4423 3 11.6667 3.22433 11.6667 3.49999C11.6667 3.57699 11.6478 3.64899 11.6165 3.71415L12.9512 5.0488C12.9825 5.07997 13 5.1223 13 5.16663V6.66661C13 6.71094 12.9825 6.75327 12.9512 6.78444L12.4512 7.28443C12.42 7.31576 12.3775 7.33326 12.3333 7.33326H10.569L9.61783 8.28441C9.58667 8.31574 9.54417 8.33324 9.5 8.33324H7.46933C7.40033 8.52674 7.217 8.66657 7 8.66657C6.72433 8.66657 6.5 8.44224 6.5 8.16658C6.5 7.89092 6.72433 7.66659 7 7.66659ZM11.1667 3.33333C11.0748 3.33333 11 3.40799 11 3.49999C11 3.59199 11.0748 3.66666 11.1667 3.66666C11.2585 3.66666 11.3333 3.59199 11.3333 3.49999C11.3333 3.40799 11.2585 3.33333 11.1667 3.33333ZM7 8.33324C7.09183 8.33324 7.16667 8.25858 7.16667 8.16658C7.16667 8.07458 7.09183 7.99992 7 7.99992C6.90817 7.99992 6.83333 8.07458 6.83333 8.16658C6.83333 8.25858 6.90817 8.33324 7 8.33324Z" fill="#00B2FF"/>
<path d="M3.50004 6.99996C3.57704 6.99996 3.64904 7.01879 3.71421 7.05012L4.33337 6.43097V5.46932C4.13987 5.40032 4.00004 5.21699 4.00004 4.99999C4.00004 4.72433 4.22437 4.5 4.50004 4.5C4.77571 4.5 5.00004 4.72433 5.00004 4.99999C5.00004 5.21699 4.86021 5.40032 4.66671 5.46932V6.49997C4.66671 6.5443 4.64921 6.58663 4.61787 6.6178L3.94987 7.28579C3.98121 7.35095 4.00004 7.42295 4.00004 7.49995C4.00004 7.71695 3.86021 7.90028 3.66671 7.96928V8.09761L4.95121 9.38209C4.98254 9.41325 5.00004 9.45558 5.00004 9.49992V9.69725C5.19354 9.76625 5.33337 9.94958 5.33337 10.1666C5.33337 10.3836 5.19354 10.5669 5.00004 10.6359V11.0307C5.19354 11.0997 5.33337 11.2831 5.33337 11.5C5.33337 11.7757 5.10904 12 4.83337 12C4.55771 12 4.33337 11.7757 4.33337 11.5C4.33337 11.2831 4.47321 11.0997 4.66671 11.0307V10.6359C4.47321 10.5669 4.33337 10.3836 4.33337 10.1666C4.33337 9.94958 4.47321 9.76625 4.66671 9.69725V9.56892L3.38221 8.28444C3.35087 8.25327 3.33337 8.21094 3.33337 8.16661V7.96928C3.13987 7.90028 3.00004 7.71695 3.00004 7.49995C3.00004 7.22429 3.22437 6.99996 3.50004 6.99996ZM4.50004 5.16666C4.59187 5.16666 4.66671 5.09199 4.66671 4.99999C4.66671 4.90799 4.59187 4.83333 4.50004 4.83333C4.40821 4.83333 4.33337 4.90799 4.33337 4.99999C4.33337 5.09199 4.40821 5.16666 4.50004 5.16666ZM4.83337 11.6665C4.92521 11.6665 5.00004 11.5919 5.00004 11.4999C5.00004 11.4079 4.92521 11.3332 4.83337 11.3332C4.74154 11.3332 4.66671 11.4079 4.66671 11.4999C4.66671 11.5919 4.74154 11.6665 4.83337 11.6665ZM4.83337 10.3332C4.92521 10.3332 5.00004 10.2586 5.00004 10.1666C5.00004 10.0746 4.92521 9.99991 4.83337 9.99991C4.74154 9.99991 4.66671 10.0746 4.66671 10.1666C4.66671 10.2586 4.74154 10.3332 4.83337 10.3332ZM3.50004 7.66661C3.59187 7.66661 3.66671 7.59195 3.66671 7.49995C3.66671 7.40795 3.59187 7.33329 3.50004 7.33329C3.40821 7.33329 3.33337 7.40795 3.33337 7.49995C3.33337 7.59195 3.40821 7.66661 3.50004 7.66661Z" fill="#00B2FF"/>
</svg>
